<?xml version="1.0" standalone="no"?>
<!DOCTYPE svg PUBLIC "-//W3C//DTD SVG 20010904//EN"
 "http://www.w3.org/TR/2001/REC-SVG-20010904/DTD/svg10.dtd">
<svg version="1.0" xmlns="http://www.w3.org/2000/svg"
 width="1347.000000pt" height="161.000000pt" viewBox="0 0 1347.000000 161.000000"
 preserveAspectRatio="xMidYMid meet">

<g transform="translate(0.000000,161.000000) scale(0.100000,-0.100000)"
fill="#000000" stroke="none">
<path d="M7567 1275 c-116 -30 -201 -143 -182 -244 18 -95 138 -256 220 -295
35 -17 37 -17 79 6 77 41 171 165 206 271 18 58 -2 129 -54 185 -69 76 -167
104 -269 77z m180 -26 c93 -45 146 -146 124 -236 -30 -121 -160 -273 -232
-273 -72 0 -209 169 -232 288 -16 80 41 179 125 220 59 29 157 29 215 1z"/>
<path d="M7630 1238 c0 -7 -5 -53 -10 -102 -11 -92 3 -342 20 -360 11 -11 25
143 24 264 0 112 -12 210 -25 210 -5 0 -9 -6 -9 -12z"/>
<path d="M7511 1191 c-21 -21 -44 -56 -51 -76 -26 -78 7 -192 81 -285 18 -22
34 -38 36 -36 2 2 -10 27 -27 55 -34 59 -70 158 -70 194 0 34 26 105 56 150
31 47 24 47 -25 -2z"/>
<path d="M7755 1174 c47 -77 53 -130 27 -214 -12 -36 -36 -87 -52 -114 -43
-67 -30 -69 20 -2 95 125 106 260 27 344 -46 49 -56 43 -22 -14z"/>
<path d="M7565 1170 c-41 -80 -43 -143 -10 -245 38 -118 59 -142 34 -40 -23
96 -25 213 -4 280 8 27 12 51 10 53 -2 2 -16 -20 -30 -48z"/>
<path d="M7697 1170 c19 -73 19 -190 -1 -273 -19 -83 -19 -89 -1 -57 27 46 55
152 54 204 0 51 -20 112 -50 157 -16 23 -16 21 -2 -31z"/>
<path d="M12576 1154 c-8 -20 -8 -24 2 -24 4 0 8 9 9 20 2 24 -3 26 -11 4z"/>
<path d="M12244 1132 c5 -9 53 -8 63 1 3 4 -10 7 -31 7 -20 0 -35 -4 -32 -8z"/>
<path d="M12159 1093 c-13 -16 -12 -17 4 -4 16 13 21 21 13 21 -2 0 -10 -8
-17 -17z"/>
<path d="M7040 1086 c-10 -13 -10 -19 0 -32 12 -14 15 -14 29 0 14 15 14 17 0
32 -14 14 -17 14 -29 0z"/>
<path d="M12214 1070 c0 -13 4 -16 10 -10 7 7 7 13 0 20 -6 6 -10 3 -10 -10z"/>
<path d="M2160 1065 c-10 -13 -9 -19 5 -35 17 -19 19 -19 37 -3 17 15 17 17 2
35 -21 22 -28 22 -44 3z"/>
<path d="M3205 1070 c-114 -5 -189 -12 -229 -24 l-59 -17 30 -19 c50 -30 73
-67 73 -119 0 -111 -107 -176 -197 -121 -28 17 -33 17 -33 4 0 -46 63 -114
126 -134 62 -21 195 -8 307 30 53 18 97 36 97 41 0 5 -20 27 -45 50 -25 23
-43 44 -40 47 3 3 61 17 130 32 l125 27 39 -33 38 -33 129 55 c71 31 130 57
132 59 2 1 -14 13 -35 25 l-38 23 54 24 55 24 16 -21 c19 -25 30 -17 30 21 0
32 -42 72 -48 45 -3 -15 -110 -61 -119 -52 -2 2 0 20 5 40 l10 36 -191 -2
c-106 -1 -268 -4 -362 -8z m445 -100 c8 -14 8 -26 0 -40 -19 -35 -80 -20 -80
20 0 40 61 55 80 20z m-136 -16 c9 -8 16 -22 16 -29 0 -18 -27 -45 -45 -45
-18 0 -45 27 -45 45 0 18 27 45 45 45 7 0 21 -7 29 -16z m-116 -51 c3 -28 -1
-33 -23 -39 -31 -8 -55 10 -55 41 0 30 9 36 45 33 26 -3 30 -7 33 -35z m-136
0 c23 -21 23 -36 -1 -57 -25 -23 -59 -13 -67 20 -12 46 32 70 68 37z m-128
-19 c31 -31 13 -74 -31 -74 -55 0 -47 83 9 89 4 1 14 -6 22 -15z"/>
<path d="M6764 1065 c-3 -8 -4 -63 -2 -124 4 -136 13 -151 97 -151 31 0 62 4
70 9 7 5 25 4 42 -2 20 -8 37 -8 57 -1 18 7 36 7 55 0 36 -13 79 2 94 35 18
38 4 114 -21 114 -16 0 -19 -8 -20 -55 -1 -52 -2 -55 -26 -55 -22 0 -26 5 -30
45 -4 37 -9 45 -25 45 -16 0 -21 -8 -25 -45 -4 -34 -10 -46 -24 -48 -26 -5
-46 24 -46 66 0 26 -4 33 -17 30 -13 -2 -19 -16 -23 -48 l-5 -45 -48 -3 c-43
-3 -48 -1 -57 23 -6 15 -10 71 -10 126 0 82 -3 99 -15 99 -9 0 -18 -7 -21 -15z"/>
<path d="M10962 949 c4 -156 6 -159 109 -159 59 0 70 3 83 22 16 22 21 92 10
122 -3 9 -15 16 -26 16 -19 0 -20 -4 -14 -49 8 -60 -5 -73 -66 -69 l-43 3 -3
123 -3 122 -25 0 -26 0 4 -131z"/>
<path d="M2320 1045 c-15 -18 -7 -45 13 -45 8 0 20 6 26 13 8 11 6 18 -8 31
-16 15 -20 15 -31 1z"/>
<path d="M2397 1042 c-16 -18 -16 -20 1 -35 18 -16 20 -16 35 1 16 18 16 20
-1 35 -18 16 -20 16 -35 -1z"/>
<path d="M10845 1030 c-18 -20 -18 -21 1 -41 l20 -20 19 21 c18 20 18 21 -1
41 l-20 20 -19 -21z"/>
<path d="M7000 1024 c-11 -12 -10 -18 3 -32 16 -15 18 -15 34 0 13 14 14 20 3
32 -7 9 -16 16 -20 16 -4 0 -13 -7 -20 -16z"/>
<path d="M7080 1025 c-10 -12 -10 -18 0 -30 12 -14 15 -14 31 1 14 13 16 20 8
31 -15 17 -24 17 -39 -2z"/>
<path d="M6597 987 c-15 -11 -13 -18 23 -72 22 -33 40 -66 40 -72 0 -16 -82
-18 -110 -3 -22 12 -37 -15 -19 -36 14 -17 121 -19 150 -4 32 18 24 64 -24
135 -38 56 -46 63 -60 52z"/>
<path d="M1470 963 c-19 -7 -40 -33 -40 -50 0 -18 37 -17 43 2 5 12 13 12 59
-1 29 -9 56 -19 60 -23 4 -3 -24 -17 -63 -30 -91 -32 -119 -57 -119 -110 0
-31 7 -49 29 -73 28 -32 33 -33 115 -37 82 -3 86 -2 86 18 0 19 -5 21 -75 21
-86 0 -115 18 -115 71 0 28 6 33 65 60 l64 29 25 -25 c23 -23 32 -25 121 -25
82 0 98 3 115 20 32 32 25 144 -9 138 -12 -3 -16 -16 -16 -58 l0 -55 -84 -3
c-87 -3 -124 9 -88 29 9 6 17 18 17 29 0 14 -20 25 -86 49 -47 17 -86 31 -87
30 -1 0 -9 -3 -17 -6z"/>
<path d="M10643 955 c-36 -15 -73 -68 -73 -102 0 -30 10 -53 24 -53 31 0 86
-23 86 -35 0 -24 -42 -45 -93 -45 -83 0 -117 59 -86 150 9 26 9 34 -2 41 -21
13 -25 11 -38 -17 -35 -78 -17 -170 40 -199 38 -20 158 -20 186 0 12 9 27 32
32 52 14 51 -5 79 -59 88 -33 6 -40 11 -40 30 0 30 35 55 78 55 29 0 33 3 30
23 -4 27 -39 33 -85 12z"/>
<path d="M2130 942 c-23 -19 -29 -52 -16 -90 7 -22 6 -23 -36 -20 l-43 3 -3
48 c-3 38 -7 47 -22 47 -16 0 -18 -10 -22 -91 -3 -102 -14 -119 -75 -119 -26
0 -33 -4 -33 -20 0 -17 7 -20 39 -20 48 0 96 37 106 80 7 30 7 30 78 31 40 1
122 0 184 -1 101 -2 113 0 132 19 33 33 26 145 -8 139 -12 -3 -16 -16 -16 -58
l0 -55 -78 -3 c-75 -3 -78 -2 -68 17 17 31 13 69 -9 91 -25 25 -80 26 -110 2z
m88 -51 c3 -15 -3 -30 -14 -38 -25 -18 -31 -17 -50 12 -13 21 -14 28 -4 41 20
24 64 14 68 -15z"/>
<path d="M6350 931 c-60 -59 -50 -119 21 -136 81 -20 58 -75 -32 -75 -106 0
-133 48 -95 166 5 15 2 24 -10 28 -22 8 -31 -6 -44 -71 -13 -61 2 -107 45
-141 22 -17 41 -22 92 -22 103 0 140 30 131 106 -3 25 -10 31 -52 45 -28 8
-51 20 -54 27 -7 22 45 62 83 62 28 0 35 4 35 20 0 17 -7 20 -46 20 -37 0 -51
-5 -74 -29z"/>
<path d="M12245 950 c-3 -6 2 -13 12 -17 10 -3 22 -8 27 -11 5 -3 6 0 2 6 -4
7 -14 12 -22 12 -8 0 -12 5 -9 10 3 6 4 10 1 10 -3 0 -8 -5 -11 -10z"/>
<path d="M10849 844 c-4 -76 -7 -88 -28 -105 -13 -10 -36 -19 -52 -19 -22 0
-29 -5 -29 -20 0 -16 7 -20 35 -20 47 0 88 22 103 55 7 14 12 64 12 110 0 77
-2 85 -19 85 -17 0 -19 -9 -22 -86z"/>
<path d="M11097 732 c-16 -18 -16 -20 3 -37 19 -18 22 -18 38 -2 13 13 14 21
6 34 -15 25 -28 26 -47 5z"/>
<path d="M1730 724 c-11 -12 -10 -18 3 -32 16 -15 18 -15 34 0 13 14 14 20 3
32 -7 9 -16 16 -20 16 -4 0 -13 -7 -20 -16z"/>
<path d="M1804 725 c-4 -8 -1 -22 6 -30 11 -14 15 -14 31 1 14 13 16 20 8 31
-15 17 -38 17 -45 -2z"/>
<path d="M12230 731 c0 -6 4 -13 10 -16 6 -3 7 1 4 9 -7 18 -14 21 -14 7z"/>
<path d="M12200 693 c5 -12 16 -25 23 -29 6 -4 9 -4 5 1 -4 4 -2 15 4 24 10
13 10 14 -2 4 -11 -10 -16 -9 -27 5 -13 15 -13 15 -3 -5z"/>
<path d="M12260 685 c-13 -14 -19 -25 -14 -25 8 1 50 50 41 50 -2 0 -14 -11
-27 -25z"/>
<path d="M12201 641 c-7 -5 -13 -12 -14 -17 -1 -5 -5 -8 -8 -7 -13 4 -41 -35
-29 -42 6 -3 9 -1 8 6 -2 7 2 13 7 14 18 0 68 42 59 48 -6 3 -16 2 -23 -2z"/>
<path d="M12062 541 c-11 -7 -10 -9 3 -14 11 -5 14 -3 9 5 -5 8 -2 9 10 5 10
-4 15 -3 11 3 -7 12 -16 12 -33 1z"/>
<path d="M11948 529 c15 -21 3 -32 -17 -16 -14 10 -14 10 -3 -5 8 -10 20 -14
29 -11 11 4 14 2 9 -5 -5 -8 1 -12 16 -12 21 1 21 2 5 11 -9 6 -15 15 -11 21
4 6 9 5 15 -3 6 -10 8 -7 6 8 -1 17 -5 20 -18 13 -10 -6 -21 -5 -29 3 -12 10
-12 9 -2 -4z"/>
<path d="M12026 509 c2 -4 -2 -10 -8 -12 -7 -3 -8 -6 -2 -6 5 -1 18 5 28 12
16 12 16 13 -3 13 -11 0 -18 -3 -15 -7z"/>
</g>
</svg>
